<?xml version="1.0" encoding="UTF-8" standalone="no"?>
<svg
   xmlns:dc="http://purl.org/dc/elements/1.1/"
   xmlns:cc="http://creativecommons.org/ns#"
   xmlns:rdf="http://www.w3.org/1999/02/22-rdf-syntax-ns#"
   xmlns:svg="http://www.w3.org/2000/svg"
   xmlns="http://www.w3.org/2000/svg"
   xmlns:sodipodi="http://sodipodi.sourceforge.net/DTD/sodipodi-0.dtd"
   xmlns:inkscape="http://www.inkscape.org/namespaces/inkscape"
   fill-opacity="0"
   color-rendering="auto"
   color-interpolation="auto"
   text-rendering="auto"
   stroke="rgb(0,0,0)"
   stroke-linecap="square"
   width="766"
   stroke-miterlimit="10"
   shape-rendering="auto"
   stroke-opacity="0"
   fill="rgb(0,0,0)"
   stroke-dasharray="none"
   font-weight="normal"
   stroke-width="1"
   height="261"
   font-family="'Dialog'"
   font-style="normal"
   stroke-linejoin="miter"
   font-size="12px"
   stroke-dashoffset="0"
   image-rendering="auto"
   version="1.1"
   id="svg274"
   sodipodi:docname="TableStrategy.svg"
   inkscape:version="1.0.1 (3bc2e813f5, 2020-09-07)">
  <metadata
     id="metadata278">
    <rdf:RDF>
      <cc:Work
         rdf:about="">
        <dc:format>image/svg+xml</dc:format>
        <dc:type
           rdf:resource="http://purl.org/dc/dcmitype/StillImage" />
      </cc:Work>
    </rdf:RDF>
  </metadata>
  <sodipodi:namedview
     pagecolor="#ffffff"
     bordercolor="#666666"
     borderopacity="1"
     objecttolerance="10"
     gridtolerance="10"
     guidetolerance="10"
     inkscape:pageopacity="0"
     inkscape:pageshadow="2"
     inkscape:window-width="1920"
     inkscape:window-height="1000"
     id="namedview276"
     showgrid="false"
     inkscape:zoom="1.6657963"
     inkscape:cx="383"
     inkscape:cy="130.5"
     inkscape:window-x="-11"
     inkscape:window-y="-11"
     inkscape:window-maximized="1"
     inkscape:current-layer="g272" />
  <!--Generated by the Batik Graphics2D SVG Generator-->
  <defs
     id="genericDefs" />
  <g
     id="g272">
    <defs
       id="defs1">
      <clipPath
         clipPathUnits="userSpaceOnUse"
         id="clipPath1">
        <path
           d="M-7 -7 L771 -7 L771 266 L-7 266 L-7 -7 Z"
           id="path3" />
      </clipPath>
      <clipPath
         clipPathUnits="userSpaceOnUse"
         id="clipPath2">
        <path
           d="M0 0 L0 255 L760 255 L760 0 Z"
           id="path6" />
      </clipPath>
      <clipPath
         clipPathUnits="userSpaceOnUse"
         id="clipPath3">
        <path
           d="M-7 -7 L96 -7 L96 51 L-7 51 L-7 -7 Z"
           id="path9" />
      </clipPath>
      <clipPath
         clipPathUnits="userSpaceOnUse"
         id="clipPath4">
        <path
           d="M0 0 L0 25 L85 25 L85 0 Z"
           id="path12" />
      </clipPath>
      <clipPath
         clipPathUnits="userSpaceOnUse"
         id="clipPath5">
        <path
           d="M0 0 L0 15 L85 15 L85 0 Z"
           id="path15" />
      </clipPath>
      <clipPath
         clipPathUnits="userSpaceOnUse"
         id="clipPath6">
        <path
           d="M-7 -7 L91 -7 L91 51 L-7 51 L-7 -7 Z"
           id="path18" />
      </clipPath>
      <clipPath
         clipPathUnits="userSpaceOnUse"
         id="clipPath7">
        <path
           d="M0 0 L0 25 L80 25 L80 0 Z"
           id="path21" />
      </clipPath>
      <clipPath
         clipPathUnits="userSpaceOnUse"
         id="clipPath8">
        <path
           d="M0 0 L0 15 L80 15 L80 0 Z"
           id="path24" />
      </clipPath>
      <clipPath
         clipPathUnits="userSpaceOnUse"
         id="clipPath9">
        <path
           d="M-7 -7 L98 -7 L98 51 L-7 51 L-7 -7 Z"
           id="path27" />
      </clipPath>
      <clipPath
         clipPathUnits="userSpaceOnUse"
         id="clipPath10">
        <path
           d="M0 0 L0 25 L87 25 L87 0 Z"
           id="path30" />
      </clipPath>
      <clipPath
         clipPathUnits="userSpaceOnUse"
         id="clipPath11">
        <path
           d="M0 0 L0 15 L87 15 L87 0 Z"
           id="path33" />
      </clipPath>
      <clipPath
         clipPathUnits="userSpaceOnUse"
         id="clipPath12">
        <path
           d="M-7 -7 L144 -7 L144 51 L-7 51 L-7 -7 Z"
           id="path36" />
      </clipPath>
      <clipPath
         clipPathUnits="userSpaceOnUse"
         id="clipPath13">
        <path
           d="M0 0 L0 25 L133 25 L133 0 Z"
           id="path39" />
      </clipPath>
      <clipPath
         clipPathUnits="userSpaceOnUse"
         id="clipPath14">
        <path
           d="M0 0 L0 15 L133 15 L133 0 Z"
           id="path42" />
      </clipPath>
      <clipPath
         clipPathUnits="userSpaceOnUse"
         id="clipPath15">
        <path
           d="M-7 -7 L166 -7 L166 51 L-7 51 L-7 -7 Z"
           id="path45" />
      </clipPath>
      <clipPath
         clipPathUnits="userSpaceOnUse"
         id="clipPath16">
        <path
           d="M0 0 L0 25 L155 25 L155 0 Z"
           id="path48" />
      </clipPath>
      <clipPath
         clipPathUnits="userSpaceOnUse"
         id="clipPath17">
        <path
           d="M0 0 L0 15 L155 15 L155 0 Z"
           id="path51" />
      </clipPath>
      <clipPath
         clipPathUnits="userSpaceOnUse"
         id="clipPath18">
        <path
           d="M-7 -7 L103 -7 L103 51 L-7 51 L-7 -7 Z"
           id="path54" />
      </clipPath>
      <clipPath
         clipPathUnits="userSpaceOnUse"
         id="clipPath19">
        <path
           d="M0 0 L0 25 L92 25 L92 0 Z"
           id="path57" />
      </clipPath>
      <clipPath
         clipPathUnits="userSpaceOnUse"
         id="clipPath20">
        <path
           d="M0 0 L0 15 L92 15 L92 0 Z"
           id="path60" />
      </clipPath>
      <clipPath
         clipPathUnits="userSpaceOnUse"
         id="clipPath21">
        <path
           d="M-6 -6 L112 -6 L112 50 L-6 50 L-6 -6 Z"
           id="path63" />
      </clipPath>
      <clipPath
         clipPathUnits="userSpaceOnUse"
         id="clipPath22">
        <path
           d="M0 0 L0 40 L102 40 L102 0 Z"
           id="path66" />
      </clipPath>
      <clipPath
         clipPathUnits="userSpaceOnUse"
         id="clipPath23">
        <path
           d="M0 0 L346 0 L346 104 L0 104 L0 0 Z"
           id="path69" />
      </clipPath>
      <clipPath
         clipPathUnits="userSpaceOnUse"
         id="clipPath24">
        <path
           d="M0 0 L0 104 L346 104 L346 0 Z"
           id="path72" />
      </clipPath>
      <clipPath
         clipPathUnits="userSpaceOnUse"
         id="clipPath25">
        <path
           d="M0 0 L328 0 L328 190 L0 190 L0 0 Z"
           id="path75" />
      </clipPath>
      <clipPath
         clipPathUnits="userSpaceOnUse"
         id="clipPath26">
        <path
           d="M0 0 L0 190 L328 190 L328 0 Z"
           id="path78" />
      </clipPath>
      <clipPath
         clipPathUnits="userSpaceOnUse"
         id="clipPath27">
        <path
           d="M0 0 L180 0 L180 190 L0 190 L0 0 Z"
           id="path81" />
      </clipPath>
      <clipPath
         clipPathUnits="userSpaceOnUse"
         id="clipPath28">
        <path
           d="M0 0 L0 190 L180 190 L180 0 Z"
           id="path84" />
      </clipPath>
      <clipPath
         clipPathUnits="userSpaceOnUse"
         id="clipPath29">
        <path
           d="M0 0 L210 0 L210 190 L0 190 L0 0 Z"
           id="path87" />
      </clipPath>
      <clipPath
         clipPathUnits="userSpaceOnUse"
         id="clipPath30">
        <path
           d="M0 0 L0 190 L210 190 L210 0 Z"
           id="path90" />
      </clipPath>
      <clipPath
         clipPathUnits="userSpaceOnUse"
         id="clipPath31">
        <path
           d="M0 0 L372 0 L372 190 L0 190 L0 0 Z"
           id="path93" />
      </clipPath>
      <clipPath
         clipPathUnits="userSpaceOnUse"
         id="clipPath32">
        <path
           d="M0 0 L0 190 L372 190 L372 0 Z"
           id="path96" />
      </clipPath>
    </defs>
    <g
       fill="white"
       text-rendering="geometricPrecision"
       fill-opacity="1"
       stroke-opacity="1"
       stroke="white"
       id="g102">
      <rect
         x="0"
         width="766"
         height="261"
         y="0"
         stroke="none"
         id="rect100" />
    </g>
    <g
       font-size="11px"
       transform="translate(2,2)"
       fill-opacity="1"
       fill="white"
       text-rendering="geometricPrecision"
       image-rendering="optimizeQuality"
       font-family="sans-serif"
       stroke="white"
       stroke-opacity="1"
       id="g106">
      <path
         d="M8 0 C3.5817 0 0 3.5817 0 8 L0 245 C0 249.4183 3.5817 253 8 253 L750 253 C754.4183 253 758 249.4183 758 245 L758 8 C758 3.5817 754.4183 0 750 0 Z"
         stroke="none"
         clip-path="url(#clipPath2)"
         id="path104" />
    </g>
    <g
       fill-opacity="1"
       text-rendering="geometricPrecision"
       stroke="black"
       stroke-linecap="butt"
       transform="translate(2,2)"
       stroke-miterlimit="0"
       stroke-opacity="1"
       fill="black"
       stroke-dasharray="8,5"
       font-family="sans-serif"
       stroke-linejoin="round"
       font-size="11px"
       image-rendering="optimizeQuality"
       id="g110">
      <path
         fill="none"
         d="M8 0 C3.5817 0 0 3.5817 0 8 L0 245 C0 249.4183 3.5817 253 8 253 L750 253 C754.4183 253 758 249.4183 758 245 L758 8 C758 3.5817 754.4183 0 750 0 Z"
         clip-path="url(#clipPath2)"
         id="path108" />
    </g>
    <g
       font-size="11px"
       transform="translate(27,24)"
       fill-opacity="1"
       fill="rgb(122,207,245)"
       text-rendering="geometricPrecision"
       image-rendering="optimizeQuality"
       font-family="sans-serif"
       stroke="rgb(122,207,245)"
       font-weight="bold"
       stroke-opacity="1"
       id="g114">
      <rect
         x="0"
         width="85"
         height="40"
         y="0"
         clip-path="url(#clipPath3)"
         stroke="none"
         id="rect112" />
    </g>
    <g
       fill-opacity="1"
       text-rendering="geometricPrecision"
       stroke="black"
       stroke-linecap="butt"
       transform="translate(27,24)"
       stroke-miterlimit="0"
       stroke-opacity="1"
       fill="black"
       font-weight="bold"
       font-family="sans-serif"
       stroke-linejoin="round"
       font-size="11px"
       image-rendering="optimizeQuality"
       id="g120">
      <rect
         fill="none"
         x="0"
         width="85"
         height="40"
         y="0"
         clip-path="url(#clipPath3)"
         id="rect116" />
      <line
         y2="15"
         fill="none"
         x1="0"
         clip-path="url(#clipPath3)"
         x2="85"
         y1="15"
         id="line118" />
    </g>
    <g
       font-size="11px"
       transform="matrix(1,0,0,1,27,39)"
       fill-opacity="1"
       fill="black"
       text-rendering="geometricPrecision"
       image-rendering="optimizeQuality"
       font-family="sans-serif"
       stroke="black"
       stroke-opacity="1"
       id="g124">
      <text
         x="2"
         xml:space="preserve"
         y="14"
         clip-path="url(#clipPath4)"
         stroke="none"
         id="text122">-view : QWidget</text>
    </g>
    <g
       font-size="11px"
       transform="translate(27,24)"
       fill-opacity="1"
       fill="black"
       text-rendering="geometricPrecision"
       image-rendering="optimizeQuality"
       font-family="sans-serif"
       stroke="black"
       font-weight="bold"
       stroke-opacity="1"
       id="g128">
      <text
         x="5"
         xml:space="preserve"
         y="12"
         clip-path="url(#clipPath5)"
         stroke="none"
         id="text126">QDockWidget</text>
    </g>
    <g
       font-size="11px"
       transform="translate(356,24)"
       fill-opacity="1"
       fill="rgb(122,207,245)"
       text-rendering="geometricPrecision"
       image-rendering="optimizeQuality"
       font-family="sans-serif"
       stroke="rgb(122,207,245)"
       font-weight="bold"
       stroke-opacity="1"
       id="g132">
      <rect
         x="0"
         width="80"
         height="40"
         y="0"
         clip-path="url(#clipPath6)"
         stroke="none"
         id="rect130" />
    </g>
    <g
       fill-opacity="1"
       text-rendering="geometricPrecision"
       stroke="black"
       stroke-linecap="butt"
       transform="translate(356,24)"
       stroke-miterlimit="0"
       stroke-opacity="1"
       fill="black"
       font-weight="bold"
       font-family="sans-serif"
       stroke-linejoin="round"
       font-size="11px"
       image-rendering="optimizeQuality"
       id="g138">
      <rect
         fill="none"
         x="0"
         width="80"
         height="40"
         y="0"
         clip-path="url(#clipPath6)"
         id="rect134" />
      <line
         y2="15"
         fill="none"
         x1="0"
         clip-path="url(#clipPath6)"
         x2="80"
         y1="15"
         id="line136" />
    </g>
    <g
       font-size="11px"
       transform="translate(356,24)"
       fill-opacity="1"
       fill="black"
       text-rendering="geometricPrecision"
       image-rendering="optimizeQuality"
       font-family="sans-serif"
       stroke="black"
       font-weight="bold"
       stroke-opacity="1"
       id="g142">
      <text
         x="16"
         xml:space="preserve"
         y="12"
         clip-path="url(#clipPath8)"
         stroke="none"
         id="text140">QWidget</text>
    </g>
    <g
       font-size="11px"
       transform="translate(129,152)"
       fill-opacity="1"
       fill="rgb(122,207,245)"
       text-rendering="geometricPrecision"
       image-rendering="optimizeQuality"
       font-family="sans-serif"
       stroke="rgb(122,207,245)"
       font-weight="bold"
       stroke-opacity="1"
       id="g146">
      <rect
         x="0"
         width="87"
         height="40"
         y="0"
         clip-path="url(#clipPath9)"
         stroke="none"
         id="rect144" />
    </g>
    <g
       fill-opacity="1"
       text-rendering="geometricPrecision"
       stroke="black"
       stroke-linecap="butt"
       transform="translate(129,152)"
       stroke-miterlimit="0"
       stroke-opacity="1"
       fill="black"
       font-weight="bold"
       font-family="sans-serif"
       stroke-linejoin="round"
       font-size="11px"
       image-rendering="optimizeQuality"
       id="g152">
      <rect
         fill="none"
         x="0"
         width="87"
         height="40"
         y="0"
         clip-path="url(#clipPath9)"
         id="rect148" />
      <line
         y2="15"
         fill="none"
         x1="0"
         clip-path="url(#clipPath9)"
         x2="87"
         y1="15"
         id="line150" />
    </g>
    <g
       font-size="11px"
       transform="translate(129,152)"
       fill-opacity="1"
       fill="black"
       text-rendering="geometricPrecision"
       image-rendering="optimizeQuality"
       font-family="sans-serif"
       stroke="black"
       font-weight="bold"
       stroke-opacity="1"
       id="g156">
      <text
         x="5"
         xml:space="preserve"
         y="12"
         clip-path="url(#clipPath11)"
         stroke="none"
         id="text154">IntroMainForm</text>
    </g>
    <g
       font-size="11px"
       transform="translate(254,152)"
       fill-opacity="1"
       fill="rgb(122,207,245)"
       text-rendering="geometricPrecision"
       image-rendering="optimizeQuality"
       font-family="sans-serif"
       stroke="rgb(122,207,245)"
       font-weight="bold"
       stroke-opacity="1"
       id="g160">
      <rect
         x="0"
         width="133"
         height="40"
         y="0"
         clip-path="url(#clipPath12)"
         stroke="none"
         id="rect158" />
    </g>
    <g
       fill-opacity="1"
       text-rendering="geometricPrecision"
       stroke="black"
       stroke-linecap="butt"
       transform="translate(254,152)"
       stroke-miterlimit="0"
       stroke-opacity="1"
       fill="black"
       font-weight="bold"
       font-family="sans-serif"
       stroke-linejoin="round"
       font-size="11px"
       image-rendering="optimizeQuality"
       id="g166">
      <rect
         fill="none"
         x="0"
         width="133"
         height="40"
         y="0"
         clip-path="url(#clipPath12)"
         id="rect162" />
      <line
         y2="15"
         fill="none"
         x1="0"
         clip-path="url(#clipPath12)"
         x2="133"
         y1="15"
         id="line164" />
    </g>
    <g
       font-size="11px"
       transform="translate(254,152)"
       fill-opacity="1"
       fill="black"
       text-rendering="geometricPrecision"
       image-rendering="optimizeQuality"
       font-family="sans-serif"
       stroke="black"
       font-weight="bold"
       stroke-opacity="1"
       id="g170">
      <text
         x="5"
         xml:space="preserve"
         y="12"
         clip-path="url(#clipPath14)"
         stroke="none"
         id="text168">DisplayTableMainForm</text>
    </g>
    <g
       font-size="11px"
       transform="translate(425,152)"
       fill-opacity="1"
       fill="rgb(122,207,245)"
       text-rendering="geometricPrecision"
       image-rendering="optimizeQuality"
       font-family="sans-serif"
       stroke="rgb(122,207,245)"
       font-weight="bold"
       stroke-opacity="1"
       id="g174">
      <rect
         x="0"
         width="155"
         height="40"
         y="0"
         clip-path="url(#clipPath15)"
         stroke="none"
         id="rect172" />
    </g>
    <g
       fill-opacity="1"
       text-rendering="geometricPrecision"
       stroke="black"
       stroke-linecap="butt"
       transform="translate(425,152)"
       stroke-miterlimit="0"
       stroke-opacity="1"
       fill="black"
       font-weight="bold"
       font-family="sans-serif"
       stroke-linejoin="round"
       font-size="11px"
       image-rendering="optimizeQuality"
       id="g180">
      <rect
         fill="none"
         x="0"
         width="155"
         height="40"
         y="0"
         clip-path="url(#clipPath15)"
         id="rect176" />
      <line
         y2="15"
         fill="none"
         x1="0"
         clip-path="url(#clipPath15)"
         x2="155"
         y1="15"
         id="line178" />
    </g>
    <g
       font-size="11px"
       transform="translate(425,152)"
       fill-opacity="1"
       fill="black"
       text-rendering="geometricPrecision"
       image-rendering="optimizeQuality"
       font-family="sans-serif"
       stroke="black"
       font-weight="bold"
       stroke-opacity="1"
       id="g184">
      <text
         x="4"
         xml:space="preserve"
         y="12"
         clip-path="url(#clipPath17)"
         stroke="none"
         id="text182">UndeditableTableMainForm</text>
    </g>
    <g
       font-size="11px"
       transform="translate(618,152)"
       fill-opacity="1"
       fill="rgb(122,207,245)"
       text-rendering="geometricPrecision"
       image-rendering="optimizeQuality"
       font-family="sans-serif"
       stroke="rgb(122,207,245)"
       font-weight="bold"
       stroke-opacity="1"
       id="g188">
      <rect
         x="0"
         width="92"
         height="40"
         y="0"
         clip-path="url(#clipPath18)"
         stroke="none"
         id="rect186" />
    </g>
    <g
       fill-opacity="1"
       text-rendering="geometricPrecision"
       stroke="black"
       stroke-linecap="butt"
       transform="translate(618,152)"
       stroke-miterlimit="0"
       stroke-opacity="1"
       fill="black"
       font-weight="bold"
       font-family="sans-serif"
       stroke-linejoin="round"
       font-size="11px"
       image-rendering="optimizeQuality"
       id="g194">
      <rect
         fill="none"
         x="0"
         width="92"
         height="40"
         y="0"
         clip-path="url(#clipPath18)"
         id="rect190" />
      <line
         y2="15"
         fill="none"
         x1="0"
         clip-path="url(#clipPath18)"
         x2="92"
         y1="15"
         id="line192" />
    </g>
    <g
       font-size="11px"
       transform="translate(618,152)"
       fill-opacity="1"
       fill="black"
       text-rendering="geometricPrecision"
       image-rendering="optimizeQuality"
       font-family="sans-serif"
       stroke="black"
       font-weight="bold"
       stroke-opacity="1"
       id="g198">
      <text
         x="4"
         xml:space="preserve"
         y="12"
         clip-path="url(#clipPath20)"
         stroke="none"
         id="text196">TableMainForm</text>
    </g>
    <g
       stroke-linecap="butt"
       transform="translate(649,9)"
       fill-opacity="1"
       fill="black"
       text-rendering="geometricPrecision"
       image-rendering="optimizeQuality"
       font-family="sans-serif"
       stroke-linejoin="round"
       stroke="black"
       stroke-width="0"
       stroke-opacity="1"
       stroke-miterlimit="0"
       id="g202">
      <rect
         fill="none"
         x="0"
         width="102"
         height="40"
         y="0"
         clip-path="url(#clipPath21)"
         id="rect200" />
    </g>
    <g
       font-size="11px"
       transform="translate(649,9)"
       fill-opacity="1"
       fill="black"
       text-rendering="geometricPrecision"
       image-rendering="optimizeQuality"
       font-family="'Tahoma'"
       stroke="black"
       stroke-opacity="1"
       id="g206">
      <path
         d="M3.5417 12.6966 L4.6146 12.6029 Q4.6875 13.2487 4.9583 13.6654 Q5.2396 14.0716 5.8229 14.332 Q6.4167 14.582 7.1458 14.582 Q7.8021 14.582 8.2917 14.3945 Q8.7917 14.1966 9.0312 13.8633 Q9.2812 13.5195 9.2812 13.1237 Q9.2812 12.7174 9.0417 12.4154 Q8.8125 12.1133 8.2708 11.9154 Q7.9271 11.7799 6.7396 11.4987 Q5.5625 11.207 5.0833 10.957 Q4.4688 10.6341 4.1667 10.1549 Q3.8646 9.6758 3.8646 9.0924 Q3.8646 8.4362 4.2292 7.8737 Q4.6042 7.3112 5.3125 7.0195 Q6.0208 6.7174 6.8958 6.7174 Q7.8438 6.7174 8.5729 7.0299 Q9.3021 7.332 9.6979 7.9362 Q10.0938 8.5299 10.1146 9.2904 L9.0312 9.3737 Q8.9375 8.5508 8.4271 8.1341 Q7.9271 7.7174 6.9375 7.7174 Q5.9062 7.7174 5.4271 8.1029 Q4.9583 8.4779 4.9583 9.0091 Q4.9583 9.4779 5.3021 9.7695 Q5.625 10.0716 7.0104 10.3841 Q8.3958 10.6966 8.9167 10.9362 Q9.6667 11.2799 10.0208 11.8112 Q10.375 12.3424 10.375 13.0299 Q10.375 13.7174 9.9792 14.3216 Q9.5938 14.9258 8.8542 15.2695 Q8.125 15.6029 7.1979 15.6029 Q6.0312 15.6029 5.2396 15.2695 Q4.4583 14.9258 4.0104 14.2487 Q3.5625 13.5612 3.5417 12.6966 ZM14.0938 14.5091 L14.25 15.4466 Q13.8021 15.5404 13.4479 15.5404 Q12.875 15.5404 12.5521 15.3633 Q12.2396 15.1758 12.1146 14.8841 Q11.9896 14.582 11.9896 13.6341 L11.9896 10.0508 L11.2083 10.0508 L11.2083 9.2383 L11.9896 9.2383 L11.9896 7.6966 L13.0312 7.0612 L13.0312 9.2383 L14.0938 9.2383 L14.0938 10.0508 L13.0312 10.0508 L13.0312 13.6966 Q13.0312 14.1445 13.0833 14.2799 Q13.1458 14.4049 13.2708 14.4779 Q13.3958 14.5508 13.6354 14.5508 Q13.8021 14.5508 14.0938 14.5091 ZM15.1146 15.457 L15.1146 9.2383 L16.0625 9.2383 L16.0625 10.1758 Q16.4271 9.5195 16.7292 9.3112 Q17.0417 9.0924 17.4062 9.0924 Q17.9479 9.0924 18.4896 9.4362 L18.1354 10.4154 Q17.7396 10.1862 17.3542 10.1862 Q17.0104 10.1862 16.7292 10.3945 Q16.4583 10.6029 16.3437 10.9674 Q16.1667 11.5299 16.1667 12.1966 L16.1667 15.457 L15.1146 15.457 ZM23.1875 14.6862 Q22.6042 15.1862 22.0521 15.3945 Q21.5104 15.6029 20.8958 15.6029 Q19.8646 15.6029 19.3125 15.1029 Q18.7708 14.5924 18.7708 13.8112 Q18.7708 13.3633 18.9792 12.9883 Q19.1875 12.6029 19.5208 12.3737 Q19.8542 12.1445 20.2812 12.0299 Q20.5937 11.9466 21.2187 11.8737 Q22.4896 11.7174 23.0937 11.5091 Q23.1042 11.2904 23.1042 11.2279 Q23.1042 10.5924 22.8021 10.3216 Q22.3958 9.9674 21.6042 9.9674 Q20.8542 9.9674 20.5 10.2279 Q20.1458 10.4883 19.9792 11.1549 L18.9479 11.0091 Q19.0937 10.3424 19.4062 9.9362 Q19.7292 9.5299 20.3333 9.3112 Q20.9479 9.0924 21.7604 9.0924 Q22.5521 9.0924 23.0521 9.2799 Q23.5521 9.4674 23.7812 9.7591 Q24.0208 10.0404 24.1146 10.4674 Q24.1667 10.7383 24.1667 11.4466 L24.1667 12.8529 Q24.1667 14.3216 24.2292 14.7174 Q24.3021 15.1029 24.5 15.457 L23.3958 15.457 Q23.2292 15.1237 23.1875 14.6862 ZM23.0937 12.332 Q22.5208 12.5716 21.375 12.7279 Q20.7292 12.8216 20.4583 12.9466 Q20.1875 13.0612 20.0417 13.2904 Q19.8958 13.5091 19.8958 13.7904 Q19.8958 14.207 20.2083 14.4883 Q20.5312 14.7695 21.1458 14.7695 Q21.7604 14.7695 22.2292 14.5091 Q22.7083 14.2383 22.9271 13.7799 Q23.0937 13.4154 23.0937 12.7174 L23.0937 12.332 ZM28.0937 14.5091 L28.25 15.4466 Q27.8021 15.5404 27.4479 15.5404 Q26.875 15.5404 26.5521 15.3633 Q26.2396 15.1758 26.1146 14.8841 Q25.9896 14.582 25.9896 13.6341 L25.9896 10.0508 L25.2083 10.0508 L25.2083 9.2383 L25.9896 9.2383 L25.9896 7.6966 L27.0312 7.0612 L27.0312 9.2383 L28.0937 9.2383 L28.0937 10.0508 L27.0312 10.0508 L27.0312 13.6966 Q27.0312 14.1445 27.0833 14.2799 Q27.1458 14.4049 27.2708 14.4779 Q27.3958 14.5508 27.6354 14.5508 Q27.8021 14.5508 28.0937 14.5091 ZM33.3854 13.457 L34.4791 13.5924 Q34.2187 14.5404 33.5208 15.0716 Q32.8229 15.6029 31.7396 15.6029 Q30.375 15.6029 29.5729 14.7591 Q28.7708 13.9154 28.7708 12.3945 Q28.7708 10.832 29.5729 9.9674 Q30.3854 9.0924 31.6771 9.0924 Q32.9271 9.0924 33.7187 9.9466 Q34.5104 10.7904 34.5104 12.332 Q34.5104 12.4258 34.5 12.6133 L29.8646 12.6133 Q29.9166 13.6445 30.4375 14.1862 Q30.9687 14.7279 31.7396 14.7279 Q32.3229 14.7279 32.7291 14.4258 Q33.1458 14.1237 33.3854 13.457 ZM29.9166 11.7487 L33.3958 11.7487 Q33.3229 10.9674 33 10.5716 Q32.4896 9.957 31.6875 9.957 Q30.9687 9.957 30.4687 10.4466 Q29.9791 10.9362 29.9166 11.7487 ZM35.5937 15.9779 L36.625 16.1237 Q36.6875 16.6029 36.9791 16.8216 Q37.375 17.1133 38.0521 17.1133 Q38.7812 17.1133 39.1771 16.8112 Q39.5833 16.5195 39.7187 15.9987 Q39.8021 15.6758 39.8021 14.6445 Q39.1041 15.457 38.0729 15.457 Q36.7916 15.457 36.0833 14.5299 Q35.3854 13.6029 35.3854 12.3112 Q35.3854 11.4154 35.7083 10.6654 Q36.0312 9.9154 36.6458 9.5091 Q37.2604 9.0924 38.0833 9.0924 Q39.1875 9.0924 39.8958 9.9883 L39.8958 9.2383 L40.875 9.2383 L40.875 14.6133 Q40.875 16.0716 40.5729 16.6758 Q40.2812 17.2799 39.6354 17.6237 Q39 17.9779 38.0625 17.9779 Q36.9479 17.9779 36.2604 17.4779 Q35.5729 16.9779 35.5937 15.9779 ZM36.4687 12.2383 Q36.4687 13.457 36.9583 14.0195 Q37.4479 14.582 38.1771 14.582 Q38.9062 14.582 39.3958 14.0299 Q39.8854 13.4674 39.8854 12.2695 Q39.8854 11.1237 39.375 10.5508 Q38.875 9.9674 38.1562 9.9674 Q37.4583 9.9674 36.9583 10.5404 Q36.4687 11.1133 36.4687 12.2383 ZM42.4062 17.8529 L42.2916 16.8633 Q42.6354 16.957 42.8958 16.957 Q43.25 16.957 43.4583 16.8424 Q43.6666 16.7279 43.802 16.5091 Q43.9062 16.3529 44.125 15.7279 Q44.1562 15.6341 44.2187 15.4674 L41.8645 9.2383 L43 9.2383 L44.2916 12.8424 Q44.5416 13.5195 44.7395 14.2799 Q44.927 13.5508 45.177 12.8633 L46.5104 9.2383 L47.5625 9.2383 L45.1979 15.5612 Q44.8125 16.5924 44.6041 16.9779 Q44.3229 17.4987 43.9583 17.7383 Q43.5937 17.9779 43.0937 17.9779 Q42.7812 17.9779 42.4062 17.8529 ZM51.927 15.457 L51.927 6.8633 L55.1666 6.8633 Q56.0208 6.8633 56.4687 6.9466 Q57.1041 7.0508 57.5312 7.3529 Q57.9583 7.6445 58.2187 8.1862 Q58.4791 8.7174 58.4791 9.3529 Q58.4791 10.4466 57.7812 11.207 Q57.0833 11.9674 55.2708 11.9674 L53.0625 11.9674 L53.0625 15.457 L51.927 15.457 ZM53.0625 10.9466 L55.2812 10.9466 Q56.3854 10.9466 56.8437 10.5404 Q57.3125 10.1341 57.3125 9.3841 Q57.3125 8.8424 57.0416 8.4674 Q56.7708 8.082 56.3229 7.957 Q56.0312 7.8841 55.2604 7.8841 L53.0625 7.8841 L53.0625 10.9466 ZM63.8541 14.6862 Q63.2708 15.1862 62.7187 15.3945 Q62.177 15.6029 61.5625 15.6029 Q60.5312 15.6029 59.9791 15.1029 Q59.4375 14.5924 59.4375 13.8112 Q59.4375 13.3633 59.6458 12.9883 Q59.8541 12.6029 60.1875 12.3737 Q60.5208 12.1445 60.9479 12.0299 Q61.2604 11.9466 61.8854 11.8737 Q63.1562 11.7174 63.7604 11.5091 Q63.7708 11.2904 63.7708 11.2279 Q63.7708 10.5924 63.4687 10.3216 Q63.0625 9.9674 62.2708 9.9674 Q61.5208 9.9674 61.1666 10.2279 Q60.8125 10.4883 60.6458 11.1549 L59.6145 11.0091 Q59.7604 10.3424 60.0729 9.9362 Q60.3958 9.5299 61 9.3112 Q61.6145 9.0924 62.427 9.0924 Q63.2187 9.0924 63.7187 9.2799 Q64.2187 9.4674 64.4479 9.7591 Q64.6875 10.0404 64.7812 10.4674 Q64.8333 10.7383 64.8333 11.4466 L64.8333 12.8529 Q64.8333 14.3216 64.8958 14.7174 Q64.9687 15.1029 65.1666 15.457 L64.0625 15.457 Q63.8958 15.1237 63.8541 14.6862 ZM63.7604 12.332 Q63.1875 12.5716 62.0416 12.7279 Q61.3958 12.8216 61.125 12.9466 Q60.8541 13.0612 60.7083 13.2904 Q60.5625 13.5091 60.5625 13.7904 Q60.5625 14.207 60.875 14.4883 Q61.1979 14.7695 61.8125 14.7695 Q62.427 14.7695 62.8958 14.5091 Q63.375 14.2383 63.5937 13.7799 Q63.7604 13.4154 63.7604 12.7174 L63.7604 12.332 ZM68.7604 14.5091 L68.9166 15.4466 Q68.4687 15.5404 68.1145 15.5404 Q67.5416 15.5404 67.2187 15.3633 Q66.9062 15.1758 66.7812 14.8841 Q66.6562 14.582 66.6562 13.6341 L66.6562 10.0508 L65.8749 10.0508 L65.8749 9.2383 L66.6562 9.2383 L66.6562 7.6966 L67.6979 7.0612 L67.6979 9.2383 L68.7604 9.2383 L68.7604 10.0508 L67.6979 10.0508 L67.6979 13.6966 Q67.6979 14.1445 67.7499 14.2799 Q67.8124 14.4049 67.9374 14.4779 Q68.0624 14.5508 68.302 14.5508 Q68.4687 14.5508 68.7604 14.5091 ZM72.0937 14.5091 L72.2499 15.4466 Q71.802 15.5404 71.4479 15.5404 Q70.8749 15.5404 70.552 15.3633 Q70.2395 15.1758 70.1145 14.8841 Q69.9895 14.582 69.9895 13.6341 L69.9895 10.0508 L69.2083 10.0508 L69.2083 9.2383 L69.9895 9.2383 L69.9895 7.6966 L71.0312 7.0612 L71.0312 9.2383 L72.0937 9.2383 L72.0937 10.0508 L71.0312 10.0508 L71.0312 13.6966 Q71.0312 14.1445 71.0833 14.2799 Q71.1458 14.4049 71.2708 14.4779 Q71.3958 14.5508 71.6354 14.5508 Q71.802 14.5508 72.0937 14.5091 ZM77.3854 13.457 L78.4791 13.5924 Q78.2187 14.5404 77.5208 15.0716 Q76.8229 15.6029 75.7395 15.6029 Q74.3749 15.6029 73.5729 14.7591 Q72.7708 13.9154 72.7708 12.3945 Q72.7708 10.832 73.5729 9.9674 Q74.3854 9.0924 75.677 9.0924 Q76.927 9.0924 77.7187 9.9466 Q78.5104 10.7904 78.5104 12.332 Q78.5104 12.4258 78.4999 12.6133 L73.8645 12.6133 Q73.9166 13.6445 74.4374 14.1862 Q74.9687 14.7279 75.7395 14.7279 Q76.3229 14.7279 76.7291 14.4258 Q77.1458 14.1237 77.3854 13.457 ZM73.9166 11.7487 L77.3958 11.7487 Q77.3229 10.9674 76.9999 10.5716 Q76.4895 9.957 75.6874 9.957 Q74.9687 9.957 74.4687 10.4466 Q73.9791 10.9362 73.9166 11.7487 ZM79.7812 15.457 L79.7812 9.2383 L80.7291 9.2383 L80.7291 10.1758 Q81.0937 9.5195 81.3958 9.3112 Q81.7083 9.0924 82.0728 9.0924 Q82.6145 9.0924 83.1562 9.4362 L82.802 10.4154 Q82.4062 10.1862 82.0208 10.1862 Q81.677 10.1862 81.3958 10.3945 Q81.1249 10.6029 81.0103 10.9674 Q80.8333 11.5299 80.8333 12.1966 L80.8333 15.457 L79.7812 15.457 ZM83.7916 15.457 L83.7916 9.2383 L84.7395 9.2383 L84.7395 10.1237 Q85.427 9.0924 86.7187 9.0924 Q87.2812 9.0924 87.7499 9.3008 Q88.2291 9.4987 88.4583 9.832 Q88.6978 10.1549 88.7916 10.6029 Q88.8437 10.8945 88.8437 11.6341 L88.8437 15.457 L87.7916 15.457 L87.7916 11.6758 Q87.7916 11.0299 87.6666 10.707 Q87.552 10.3841 87.2291 10.1966 Q86.9166 10.0091 86.4999 10.0091 Q85.8228 10.0091 85.3333 10.4362 Q84.8437 10.8633 84.8437 12.0612 L84.8437 15.457 L83.7916 15.457 Z"
         stroke="none"
         clip-path="url(#clipPath22)"
         id="path204" />
    </g>
    <g
       stroke-linecap="butt"
       font-size="11px"
       transform="translate(63,-11)"
       fill-opacity="1"
       fill="black"
       text-rendering="geometricPrecision"
       image-rendering="optimizeQuality"
       font-family="sans-serif"
       stroke-linejoin="round"
       stroke="black"
       stroke-opacity="1"
       id="g210">
      <line
         y2="50"
         fill="none"
         x1="292"
         clip-path="url(#clipPath24)"
         x2="50"
         y1="50"
         id="line208" />
    </g>
    <g
       fill-opacity="1"
       text-rendering="geometricPrecision"
       stroke="black"
       stroke-linecap="butt"
       transform="translate(122,15)"
       stroke-opacity="1"
       fill="black"
       stroke-dasharray="5"
       font-family="sans-serif"
       stroke-linejoin="round"
       font-size="11px"
       stroke-dashoffset="1"
       image-rendering="optimizeQuality"
       id="g218">
      <line
         y2="86"
         fill="none"
         x1="274"
         clip-path="url(#clipPath26)"
         x2="274"
         y1="50"
         id="line212" />
      <line
         y2="86"
         fill="none"
         x1="274"
         clip-path="url(#clipPath26)"
         x2="50"
         y1="86"
         id="line214" />
      <line
         y2="136"
         fill="none"
         x1="50"
         clip-path="url(#clipPath26)"
         x2="50"
         y1="86"
         id="line216" />
    </g>
    <g
       stroke-linecap="butt"
       font-size="11px"
       transform="translate(122,15)"
       fill-opacity="1"
       fill="rgb(122,207,245)"
       text-rendering="geometricPrecision"
       image-rendering="optimizeQuality"
       font-family="sans-serif"
       stroke-linejoin="round"
       stroke="rgb(122,207,245)"
       stroke-opacity="1"
       id="g224">
      <polygon
         points=" 274 50 268 62 280 62"
         stroke="none"
         clip-path="url(#clipPath26)"
         id="polygon220" />
      <polygon
         fill="none"
         clip-path="url(#clipPath26)"
         points=" 274 50 268 62 280 62"
         stroke="black"
         id="polygon222" />
    </g>
    <g
       fill-opacity="1"
       text-rendering="geometricPrecision"
       stroke="black"
       stroke-linecap="butt"
       transform="translate(270,15)"
       stroke-opacity="1"
       fill="black"
       stroke-dasharray="5"
       font-family="sans-serif"
       stroke-linejoin="round"
       font-size="11px"
       stroke-dashoffset="1"
       image-rendering="optimizeQuality"
       id="g232">
      <line
         y2="86"
         fill="none"
         x1="126"
         clip-path="url(#clipPath28)"
         x2="126"
         y1="50"
         id="line226" />
      <line
         y2="86"
         fill="none"
         x1="126"
         clip-path="url(#clipPath28)"
         x2="50"
         y1="86"
         id="line228" />
      <line
         y2="136"
         fill="none"
         x1="50"
         clip-path="url(#clipPath28)"
         x2="50"
         y1="86"
         id="line230" />
    </g>
    <g
       stroke-linecap="butt"
       font-size="11px"
       transform="translate(270,15)"
       fill-opacity="1"
       fill="rgb(122,207,245)"
       text-rendering="geometricPrecision"
       image-rendering="optimizeQuality"
       font-family="sans-serif"
       stroke-linejoin="round"
       stroke="rgb(122,207,245)"
       stroke-opacity="1"
       id="g238">
      <polygon
         points=" 126 50 120 62 132 62"
         stroke="none"
         clip-path="url(#clipPath28)"
         id="polygon234" />
      <polygon
         fill="none"
         clip-path="url(#clipPath28)"
         points=" 126 50 120 62 132 62"
         stroke="black"
         id="polygon236" />
    </g>
    <g
       fill-opacity="1"
       text-rendering="geometricPrecision"
       stroke="black"
       stroke-linecap="butt"
       transform="translate(346,15)"
       stroke-opacity="1"
       fill="black"
       stroke-dasharray="5"
       font-family="sans-serif"
       stroke-linejoin="round"
       font-size="11px"
       stroke-dashoffset="1"
       image-rendering="optimizeQuality"
       id="g246">
      <line
         y2="86"
         fill="none"
         x1="50"
         clip-path="url(#clipPath30)"
         x2="50"
         y1="50"
         id="line240" />
      <line
         y2="86"
         fill="none"
         x1="50"
         clip-path="url(#clipPath30)"
         x2="156"
         y1="86"
         id="line242" />
      <line
         y2="136"
         fill="none"
         x1="156"
         clip-path="url(#clipPath30)"
         x2="156"
         y1="86"
         id="line244" />
    </g>
    <g
       stroke-linecap="butt"
       font-size="11px"
       transform="translate(346,15)"
       fill-opacity="1"
       fill="rgb(122,207,245)"
       text-rendering="geometricPrecision"
       image-rendering="optimizeQuality"
       font-family="sans-serif"
       stroke-linejoin="round"
       stroke="rgb(122,207,245)"
       stroke-opacity="1"
       id="g252">
      <polygon
         points=" 50 50 44 62 56 62"
         stroke="none"
         clip-path="url(#clipPath30)"
         id="polygon248" />
      <polygon
         fill="none"
         clip-path="url(#clipPath30)"
         points=" 50 50 44 62 56 62"
         stroke="black"
         id="polygon250" />
    </g>
    <g
       fill-opacity="1"
       text-rendering="geometricPrecision"
       stroke="black"
       stroke-linecap="butt"
       transform="translate(346,15)"
       stroke-opacity="1"
       fill="black"
       stroke-dasharray="5"
       font-family="sans-serif"
       stroke-linejoin="round"
       font-size="11px"
       stroke-dashoffset="1"
       image-rendering="optimizeQuality"
       id="g260">
      <line
         y2="86"
         fill="none"
         x1="50"
         clip-path="url(#clipPath32)"
         x2="50"
         y1="50"
         id="line254" />
      <line
         y2="86"
         fill="none"
         x1="50"
         clip-path="url(#clipPath32)"
         x2="318"
         y1="86"
         id="line256" />
      <line
         y2="136"
         fill="none"
         x1="318"
         clip-path="url(#clipPath32)"
         x2="318"
         y1="86"
         id="line258" />
    </g>
    <g
       stroke-linecap="butt"
       font-size="11px"
       transform="translate(346,15)"
       fill-opacity="1"
       fill="rgb(122,207,245)"
       text-rendering="geometricPrecision"
       image-rendering="optimizeQuality"
       font-family="sans-serif"
       stroke-linejoin="round"
       stroke="rgb(122,207,245)"
       stroke-opacity="1"
       id="g266">
      <polygon
         points=" 50 50 44 62 56 62"
         stroke="none"
         clip-path="url(#clipPath32)"
         id="polygon262" />
      <polygon
         fill="none"
         clip-path="url(#clipPath32)"
         points=" 50 50 44 62 56 62"
         stroke="black"
         id="polygon264" />
    </g>
    <g
       font-size="8px"
       fill-opacity="1"
       fill="#787878"
       text-rendering="geometricPrecision"
       image-rendering="optimizeQuality"
       stroke="#787878"
       stroke-opacity="1"
       id="g270"
       transform="translate(558.89185,237.72414)">
      <text
         x="0"
         xml:space="preserve"
         y="10"
         stroke="none"
         id="text268">Visual Paradigm Professional(Maher(FH Aachen))</text>
    </g>
  </g>
</svg>
